<svg version="1.1" id="Layer_1" xmlns="http://www.w3.org/2000/svg" xmlns:xlink="http://www.w3.org/1999/xlink" x="0px" y="0px"
	 width="100%" viewBox="0 0 544 704" enable-background="new 0 0 544 704" xml:space="preserve">
<path fill="#000000" opacity="1.000000" stroke="none" 
	d="
M156.315918,435.577454 
	C175.459564,443.006439 194.318268,450.110413 213.004318,457.642639 
	C227.185303,463.358978 241.805542,468.024384 254.964737,476.217346 
	C265.147125,482.557007 276.107971,482.764557 286.956268,477.409363 
	C315.536957,463.300720 345.386078,452.314331 375.239227,441.315857 
	C404.298920,430.609711 433.295197,419.731262 462.310974,408.906158 
	C475.913696,403.831268 474.472687,407.493591 474.346161,416.769623 
	C474.218903,426.100433 474.507935,435.439423 474.250916,444.764771 
	C474.140228,448.781525 475.448120,450.740479 479.384827,451.862946 
	C490.825134,455.124878 501.031525,460.434021 508.100708,470.559967 
	C530.765564,503.025299 511.671387,548.014771 476.239075,552.565308 
	C475.767181,552.625916 475.323853,552.908752 474.381683,553.278320 
	C474.381683,561.762756 473.916199,570.418762 474.518372,578.999817 
	C475.071442,586.881287 471.440460,591.003418 464.671722,593.748169 
	C438.585205,604.326050 412.499023,614.908875 386.523285,625.754761 
	C362.089630,635.956726 337.808929,646.524597 313.425171,656.846863 
	C309.743164,658.405701 307.272400,661.348816 304.401459,663.840454 
	C288.947388,677.253296 266.790009,679.614319 248.955185,669.650024 
	C247.360657,668.759155 245.478485,667.951660 244.437698,666.571594 
	C237.994781,658.028381 228.124817,655.676208 218.966461,651.884705 
	C190.039001,639.908936 161.278183,627.526611 132.276321,615.735962 
	C114.997009,608.711060 97.595367,602.016235 80.669983,594.135437 
	C73.228012,590.670349 69.360283,586.159058 70.184174,577.118958 
	C70.793442,570.433838 70.760635,563.513672 70.696625,556.692261 
	C70.670425,553.900269 69.838051,552.472839 66.856453,552.045593 
	C43.819405,548.744568 33.115456,528.759460 29.734856,510.819244 
	C27.388313,498.366547 28.087481,486.134583 34.154881,474.836365 
	C40.193615,463.591522 50.208076,456.894409 61.956379,452.465942 
	C70.470566,449.256531 70.662880,448.888458 70.637726,439.689117 
	C70.613602,430.862885 70.912506,422.038971 70.167274,413.210449 
	C69.520302,405.546051 70.988670,404.472107 78.281776,406.463409 
	C93.918312,410.732727 108.453667,417.958984 123.652252,423.411102 
	C134.466721,427.290527 145.191788,431.419220 156.315918,435.577454 
M104.305885,551.073120 
	C100.106010,552.164612 95.859482,553.220459 91.511841,553.044922 
	C87.978645,552.902222 87.167068,554.613403 87.443581,557.604004 
	C87.950417,563.085999 88.347946,568.577393 87.391068,574.046631 
	C86.634125,578.373108 88.344322,580.466492 92.544083,582.098999 
	C120.795082,593.079712 148.993439,604.197449 176.711273,616.498840 
	C194.370346,624.336121 212.180618,631.833435 229.941605,639.440002 
	C234.988388,641.601440 236.056763,641.008423 235.599274,635.651428 
	C234.930496,627.820068 235.463333,620.032593 235.525772,612.215393 
	C235.859894,570.392395 235.906509,528.566223 234.857315,486.747437 
	C234.789200,484.032684 234.126724,482.414124 231.314972,481.701050 
	C223.208206,479.645172 215.653854,476.026123 207.975830,472.849213 
	C170.107315,457.180542 131.415634,443.665070 93.266060,428.736542 
	C91.641594,428.100891 89.984756,426.958130 87.986328,427.904633 
	C87.795303,428.333710 87.431084,428.774841 87.425461,429.220459 
	C87.326714,437.050385 87.378967,444.883850 87.160362,452.709900 
	C87.057007,456.410004 88.568657,457.747070 92.177788,457.704010 
	C97.827705,457.636597 103.483658,457.461914 109.097923,458.678375 
	C121.353485,461.333862 129.427826,472.701935 127.489578,485.052979 
	C127.155518,487.181732 127.864983,488.348297 129.384506,489.720795 
	C139.374680,498.744415 139.763794,508.629822 130.468567,518.251343 
	C128.283524,520.513062 126.793198,522.895752 126.417747,526.020752 
	C124.852448,539.049316 117.583321,547.198608 104.305885,551.073120 
M450.563599,430.199371 
	C445.035736,432.047913 439.439026,433.714264 433.991089,435.774200 
	C394.283844,450.787750 354.621521,465.920349 314.888763,480.865784 
	C311.987457,481.957092 311.043579,483.432800 311.091370,486.312592 
	C311.375854,503.471863 310.625458,520.624023 310.513763,537.773743 
	C310.302155,570.253906 310.860260,602.739075 311.120972,635.221985 
	C311.131256,636.503357 310.815765,637.916077 312.486633,639.409241 
	C319.848083,636.352783 327.464172,633.158997 335.104340,630.023804 
	C374.535309,613.843201 413.959686,597.646362 453.427399,581.555725 
	C457.301971,579.976074 459.423645,577.967529 458.833008,573.410034 
	C458.365662,569.803650 458.695953,566.090820 458.711456,562.425476 
	C458.747803,553.847351 458.733765,554.066650 450.165100,553.143188 
	C434.816498,551.488953 420.151459,546.851685 419.084595,524.320984 
	C418.977875,522.066956 417.650360,520.723206 416.262115,519.261047 
	C407.181213,509.696777 406.857239,499.875092 415.385040,489.959412 
	C416.998840,488.082977 417.804626,486.205200 417.785645,483.676086 
	C417.679413,469.525146 425.124573,461.007019 439.295654,458.432587 
	C444.114960,457.557098 448.921906,457.799774 453.739532,457.703369 
	C456.475281,457.648590 458.452423,456.619629 458.498077,453.758636 
	C458.629791,445.506927 458.544617,437.251770 458.544617,428.997955 
	C454.995758,428.378052 453.193726,429.433319 450.563599,430.199371 
M44.971584,502.371857 
	C45.732491,512.802063 48.746292,522.198242 56.584270,529.701355 
	C69.221657,541.798767 92.807564,539.735657 104.802399,534.686157 
	C107.439247,533.576050 109.945816,530.782410 109.000153,528.044250 
	C107.954887,525.017639 104.369476,526.439392 101.855728,526.679077 
	C92.382484,527.582520 82.894615,527.408630 73.416954,527.086731 
	C69.219490,526.944214 66.715050,523.668762 66.836082,519.235046 
	C66.951866,514.993652 69.214653,512.855957 73.445755,512.796326 
	C76.442558,512.754028 79.440590,512.658508 82.436287,512.704224 
	C92.592827,512.859192 102.740585,512.690491 112.827736,511.427765 
	C117.510025,510.841644 120.498619,507.355194 119.759544,503.336243 
	C118.888992,498.602295 115.027214,499.611572 111.804245,499.750610 
	C101.497833,500.195129 91.196999,500.784515 80.887939,501.143463 
	C77.243263,501.270355 73.563644,501.067352 69.931923,500.699554 
	C66.459267,500.347870 64.732483,498.214294 64.613892,494.632050 
	C64.414581,488.612061 67.142616,485.406769 73.229774,485.908691 
	C83.560463,486.760406 93.847275,486.533020 104.120659,485.532196 
	C107.366936,485.215912 111.102303,484.659912 111.483017,480.265198 
	C111.790695,476.713348 108.277504,473.486359 103.814041,473.295807 
	C90.842972,472.742004 77.863907,472.378235 64.889259,471.904419 
	C59.877834,471.721405 55.843292,473.649231 52.515911,477.303131 
	C46.256035,484.177338 44.728207,492.523682 44.971584,502.371857 
M496.692993,482.813660 
	C492.219391,473.168945 484.033752,470.599548 474.335022,471.453430 
	C465.684937,472.214966 457.026459,472.215698 448.366272,472.422272 
	C445.189728,472.498047 442.046600,472.901428 439.084167,474.097961 
	C436.532501,475.128510 435.083954,476.945984 435.318420,479.900726 
	C435.535095,482.631805 437.467499,483.489594 439.640839,484.023407 
	C441.246399,484.417725 442.909241,484.598877 444.555328,484.804749 
	C454.345367,486.029266 464.180054,485.644623 474.006775,485.629730 
	C479.058258,485.622101 481.738190,488.009674 482.011108,492.513885 
	C482.305328,497.369965 479.887665,499.864380 474.370544,500.269989 
	C472.545837,500.404175 470.705566,500.320435 468.872650,500.350281 
	C456.869812,500.545593 444.888031,499.994385 432.905182,499.405304 
	C430.742310,499.299011 428.303680,499.338135 427.444092,501.889343 
	C426.670776,504.184418 427.046570,506.529785 428.601837,508.513458 
	C429.947144,510.229279 431.872345,510.584991 433.934967,510.782501 
	C446.704102,512.004883 459.482819,512.875244 472.326355,512.717224 
	C476.964355,512.660095 480.366669,515.657959 480.561157,519.732544 
	C480.771820,524.145264 477.521149,525.669250 474.042389,526.739136 
	C472.791199,527.123962 471.415375,527.247803 470.096771,527.245972 
	C461.106903,527.233337 452.112488,527.738159 443.134644,526.549438 
	C440.941223,526.259094 437.622223,524.751465 436.590790,528.025208 
	C435.507507,531.463501 438.228546,533.532043 440.975372,535.009399 
	C442.423004,535.788025 444.028046,536.480530 445.635437,536.720886 
	C453.522461,537.900330 461.386566,539.136841 469.448700,538.070923 
	C475.134552,537.319092 480.587799,536.260620 485.455383,533.003723 
	C500.485840,522.946655 505.617981,501.141663 496.692993,482.813660 
M270.539551,497.276093 
	C265.800446,497.387024 261.312683,496.075958 256.826294,494.804443 
	C254.009476,494.006165 252.301193,494.508667 252.252869,497.897400 
	C252.089081,509.385254 251.009125,520.845947 251.336700,532.354187 
	C251.448364,536.276550 252.988052,538.784851 256.478851,540.690735 
	C268.136566,547.055481 279.372009,546.065247 290.634308,539.647339 
	C293.432678,538.052734 294.732452,536.296753 294.711700,533.001038 
	C294.635193,520.837769 294.835297,508.672913 294.864319,496.508514 
	C294.868073,494.946075 295.387573,493.131287 293.421326,491.775055 
	C286.373932,494.258484 279.340576,497.522644 270.539551,497.276093 
M270.811432,622.943481 
	C264.291321,622.490356 258.231262,620.376404 252.538544,617.218628 
	C250.995026,619.173950 251.355362,620.885742 251.368851,622.488281 
	C251.424896,629.149597 251.515045,635.810913 251.635071,642.471375 
	C251.798157,651.522400 255.075653,655.795715 263.757843,658.840576 
	C273.354919,662.206299 282.017303,660.649963 290.139832,654.628235 
	C293.373169,652.231201 294.991852,649.459656 294.892822,645.377136 
	C294.698975,637.384521 294.805908,629.384949 294.744537,621.388550 
	C294.734772,620.114136 295.058197,618.666870 293.177063,617.477173 
	C286.743225,621.262085 279.581573,623.634583 270.811432,622.943481 
M263.011475,575.571533 
	C267.584625,576.687378 272.235535,576.870178 276.906799,576.644104 
	C291.495087,575.938110 295.265961,572.340942 294.645874,559.796509 
	C294.637665,559.630188 294.635101,559.463379 294.635712,559.296814 
	C294.648529,555.823181 293.235138,554.758362 289.941650,556.306396 
	C279.565125,561.183777 269.200836,559.788757 258.850403,556.125305 
	C257.026123,555.479614 255.347382,554.120361 253.101715,554.743347 
	C251.416229,556.955383 252.190567,559.533997 252.186874,561.935913 
	C252.170853,572.335266 252.216492,572.335327 263.011475,575.571533 
M253.552322,589.611389 
	C250.961563,591.355469 252.400024,594.212097 251.684372,596.484680 
	C250.402420,600.555420 252.091003,602.971436 256.045135,604.510254 
	C264.323883,607.731995 272.856171,608.818909 281.527344,607.381226 
	C293.134216,605.456787 295.239014,602.786072 294.684113,593.014221 
	C294.505341,589.866577 293.534088,588.600037 290.398743,590.035400 
	C278.289948,595.578979 266.250000,595.321655 253.552322,589.611389 
z"/>
<path fill="#000000" opacity="1.000000" stroke="none" 
	d="
M128.404968,82.246567 
	C164.572968,71.620094 199.841644,59.496025 235.158554,47.541069 
	C245.410385,44.070778 255.830399,41.181240 266.063324,37.679287 
	C271.824615,35.707623 277.551453,36.500076 283.203674,38.378311 
	C305.634827,45.832199 328.040131,53.365688 350.512360,60.693760 
	C369.660522,66.937866 389.003265,72.605354 408.033081,79.184105 
	C418.404419,82.769531 428.665985,86.708801 439.084290,90.193390 
	C441.996094,91.167274 444.774261,92.450478 445.073853,96.093765 
	C445.365753,99.643387 443.030457,101.508873 440.374146,103.123055 
	C439.520111,103.642021 438.711487,104.296516 437.788605,104.631493 
	C432.258820,106.638741 430.352264,110.279419 431.386047,116.200203 
	C432.110718,120.350677 430.561218,124.405785 428.032990,127.924629 
	C426.673523,129.816727 425.258514,131.686676 424.093811,133.697144 
	C421.858307,137.556061 421.638428,141.049500 425.680573,144.194717 
	C430.913513,148.266510 434.670380,153.407867 436.424194,160.011078 
	C438.349579,167.260178 437.083984,173.472794 431.718658,178.822464 
	C430.098083,180.438339 428.110291,181.827377 427.363312,184.740707 
	C433.580688,184.927460 432.958099,189.546417 433.521240,193.817825 
	C435.103455,205.818878 433.213287,217.767426 433.379639,229.736069 
	C433.481354,237.052414 433.895905,244.363937 434.102692,251.679535 
	C434.178375,254.355530 434.278046,257.158569 431.372620,258.665649 
	C428.156219,260.334015 424.867859,260.322174 421.908051,258.219482 
	C419.892761,256.787781 418.177551,254.926544 416.364990,253.218307 
	C413.614044,250.625717 410.852142,249.656296 407.682220,252.656082 
	C405.752472,254.482300 403.753021,256.302368 401.537262,257.744873 
	C396.897736,260.765289 392.485748,258.615082 391.758057,253.156967 
	C391.670258,252.498627 391.637634,251.826202 391.652191,251.161896 
	C392.088867,231.211380 392.359863,211.254349 393.126862,191.316406 
	C393.279999,187.336121 392.631409,184.327820 390.170105,181.272949 
	C379.753082,168.343842 385.652222,153.150040 393.840210,144.603333 
	C395.077759,143.311554 396.693024,141.915680 398.344513,141.567001 
	C405.551514,140.045349 407.715424,135.778275 405.948151,128.973419 
	C405.826355,128.504517 405.920197,127.977951 405.924286,127.478287 
	C406.017761,116.048981 405.456329,115.485992 394.109406,118.463036 
	C388.325378,119.980576 382.762848,122.324020 377.033936,124.077675 
	C374.177704,124.951996 373.093872,126.581871 373.047058,129.512787 
	C372.832001,142.978302 372.348999,156.440155 372.201843,169.905945 
	C372.052673,183.555267 372.641876,197.242966 370.420105,210.780518 
	C366.917847,232.120255 357.177002,250.467819 342.521393,266.130768 
	C333.751495,275.503448 323.916168,283.663788 312.682709,290.176270 
	C286.161469,305.551697 259.791199,305.734772 232.952774,290.951691 
	C202.712784,274.294952 184.292511,248.707901 175.346725,215.886215 
	C172.130203,204.084900 171.993378,191.852432 171.861862,179.697189 
	C171.683411,163.204773 171.510391,146.708679 171.701218,130.218399 
	C171.749985,126.002861 170.137253,124.524826 166.398087,123.390060 
	C147.932816,117.786140 129.546936,111.920021 111.148338,106.098030 
	C109.091629,105.447212 107.118507,104.521194 105.130112,103.668045 
	C102.161842,102.394485 100.052940,100.396866 100.126778,96.913750 
	C100.200813,93.420998 102.469101,91.425812 105.424026,90.341187 
	C112.923241,87.588539 120.493744,85.030136 128.404968,82.246567 
M236.568573,274.905670 
	C248.046326,282.265198 260.644836,287.030640 274.214874,286.369965 
	C288.956299,285.652222 302.519135,279.936188 314.149841,270.834045 
	C336.635101,253.237167 351.622375,230.880661 355.203094,201.953979 
	C356.277710,193.272766 356.029785,184.520233 355.382599,175.526688 
	C351.472565,175.728455 348.593445,177.067703 345.760681,178.328903 
	C328.398132,186.059052 310.361603,191.999084 292.591370,198.655228 
	C279.020569,203.738434 265.860168,203.955811 252.201202,199.076630 
	C232.753906,192.129745 213.318726,185.196625 194.436432,176.796829 
	C192.685303,176.017822 190.977707,174.686661 188.823807,175.324127 
	C184.039536,209.956131 199.851761,251.565811 236.568573,274.905670 
M319.998077,68.605904 
	C305.841980,63.701344 291.656647,58.878551 277.548859,53.838711 
	C273.687134,52.459148 270.211212,52.757530 266.419647,54.077396 
	C226.002930,68.146576 185.454819,81.827377 144.694382,94.873055 
	C143.095474,95.384789 141.387863,95.793053 139.949234,97.375832 
	C141.303024,97.906029 142.216446,98.295593 143.151001,98.625175 
	C178.173904,110.976318 214.114716,120.630295 248.795044,133.914993 
	C264.636780,139.983353 279.203033,139.865540 295.130798,133.931137 
	C330.682404,120.685303 367.121674,109.983986 403.352692,98.721069 
	C404.414154,98.391098 405.708557,98.316673 406.068176,95.971367 
	C377.445374,87.706039 349.159729,78.085785 319.998077,68.605904 
M350.609192,159.005615 
	C352.786224,157.766617 356.437531,158.128891 356.573395,154.601837 
	C356.829254,147.957306 356.988159,141.291687 356.246307,134.652618 
	C355.899780,131.551208 354.149384,130.739807 351.356689,131.630524 
	C349.612457,132.186844 347.875549,132.766846 346.141693,133.354919 
	C324.246155,140.781189 302.339233,148.174210 280.466705,155.667709 
	C275.554138,157.350754 270.889374,157.329971 265.846527,155.841339 
	C244.454712,149.526474 223.523621,141.833527 202.306961,135.004898 
	C197.853546,133.571548 193.611664,131.186142 188.031830,130.646240 
	C188.031830,138.469177 188.272156,145.607605 187.927734,152.717697 
	C187.762085,156.137558 188.758881,157.725800 191.959015,158.932968 
	C211.421265,166.274597 230.927689,173.524414 250.176804,181.397873 
	C265.928772,187.840881 281.093597,187.241760 296.613953,180.677780 
	C314.236084,173.224869 332.128723,166.411606 350.609192,159.005615 
M402.242737,169.808304 
	C402.702148,172.382278 404.703857,173.589325 406.663513,174.867813 
	C409.959595,177.018204 413.046021,176.926514 416.309174,174.593292 
	C420.072723,171.902298 421.599091,168.258163 421.239075,163.878311 
	C420.912354,159.902954 418.121552,158.035049 414.535492,156.790909 
	C407.949341,154.505951 400.577454,159.438248 402.242737,169.808304 
M416.806244,206.568771 
	C416.507385,203.349991 417.172577,200.027206 416.164581,196.804535 
	C412.823303,197.100708 410.988861,198.969681 410.802979,201.569412 
	C410.151672,210.677689 409.762482,219.808777 409.486481,228.937622 
	C409.388702,232.170685 412.100067,233.174179 414.637939,233.208527 
	C417.256989,233.243973 416.930969,230.696503 416.943512,229.005402 
	C416.996582,221.854126 416.880096,214.701599 416.806244,206.568771 
z"/>
<path fill="#000000" opacity="1.000000" stroke="none" 
	d="
M253.207458,445.696533 
	C239.506256,433.342926 223.427338,425.585571 207.091354,418.453583 
	C178.072601,405.784546 148.286957,395.113251 118.129959,385.472412 
	C115.283249,384.562378 112.521049,383.352234 109.791985,382.120972 
	C107.554153,381.111359 106.099945,379.402679 105.722092,376.829742 
	C104.711502,369.948212 107.962189,367.122620 115.297874,369.232391 
	C126.652840,372.498108 137.975098,375.922272 149.161926,379.719116 
	C177.243027,389.250031 205.094604,399.353821 231.488251,413.101807 
	C246.116486,420.721405 259.513153,429.817871 270.149658,442.596558 
	C270.995850,443.613190 271.684540,444.760956 271.952637,445.143433 
	C274.486115,445.263763 275.221008,444.259552 275.885651,443.350677 
	C288.873718,425.589569 307.446014,415.505920 326.796997,406.656189 
	C359.707947,391.605072 393.758698,379.585266 428.408508,369.222168 
	C429.365723,368.935883 430.329254,368.669189 431.295532,368.415222 
	C434.928680,367.460205 438.315216,367.076691 439.798157,371.729034 
	C441.411102,376.789276 440.102905,381.038239 435.754944,382.605469 
	C428.870239,385.087097 421.790588,387.021545 414.847961,389.349915 
	C384.208160,399.625854 353.638123,410.109039 324.579651,424.432556 
	C312.293488,430.488617 301.310455,438.506500 291.527924,448.404236 
	C297.262146,445.950012 303.056610,443.626801 308.720886,441.020660 
	C350.383881,421.851288 393.531403,406.519318 436.785767,391.472778 
	C441.957214,389.673828 447.369537,388.566742 452.671539,387.143951 
	C455.534485,386.375732 456.943634,387.556610 457.675323,390.384735 
	C459.672028,398.102295 458.311279,400.848877 450.710144,403.315155 
	C407.443848,417.353455 365.271210,434.365326 322.775452,450.490051 
	C313.610046,453.967773 304.612732,458.086456 295.986176,462.740662 
	C282.514221,470.009033 269.011200,470.256714 255.157471,464.597046 
	C233.422699,455.717743 211.884811,446.337250 189.998642,437.852295 
	C157.866974,425.395355 125.725769,412.932098 92.995338,402.083923 
	C87.238350,400.175842 85.149254,394.497498 88.269730,389.254425 
	C89.701073,386.849457 91.951767,386.859314 94.417946,387.210419 
	C101.738441,388.252563 108.575279,390.904785 115.466789,393.369965 
	C150.282654,405.824097 184.927689,418.736511 218.983002,433.156158 
	C230.170212,437.893066 241.050339,443.355011 252.074341,448.477997 
	C253.529022,449.153992 255.004349,449.785522 256.784882,450.577667 
	C256.329163,448.138367 254.511719,447.320068 253.207458,445.696533 
z"/>
<path fill="#000000" opacity="1.000000" stroke="none" 
	d="
M284.640259,319.145844 
	C292.404419,326.950287 299.903595,334.503296 307.325500,342.131470 
	C311.949463,346.883972 312.317474,346.908875 315.204865,341.223633 
	C323.153687,325.572296 329.011505,309.112335 333.463013,292.181641 
	C334.658264,287.635773 336.161346,286.313263 340.601990,288.214630 
	C367.547302,299.752197 394.824738,310.660461 417.765076,329.631287 
	C423.038239,333.992004 427.938965,338.783447 431.733002,344.534149 
	C435.819611,350.728271 435.000397,352.585480 427.919525,354.643677 
	C423.965851,355.792847 420.377502,356.011902 417.527313,352.401306 
	C406.345917,338.236877 390.687073,330.279358 375.288208,321.975311 
	C367.664246,317.864014 359.894073,314.057587 351.925140,310.635315 
	C348.422180,309.130981 346.739349,309.552490 345.302460,313.437439 
	C339.227356,329.862549 331.823395,345.677063 322.394623,360.490173 
	C316.771576,369.324341 312.808777,369.932373 304.969604,362.928406 
	C301.617493,359.933441 298.368439,356.815186 295.193512,353.632355 
	C292.746307,351.179016 291.048798,351.063446 288.997803,354.283661 
	C283.726990,362.559204 273.741516,366.010071 264.183319,363.357483 
	C260.287903,362.276398 257.847076,359.611664 256.348358,356.187012 
	C254.354904,351.631897 251.841614,351.977783 248.821106,354.901703 
	C246.194412,357.444366 243.723587,360.147461 241.116653,362.711304 
	C233.741165,369.965027 229.584183,369.530670 224.140472,360.947205 
	C214.557724,345.837433 206.431549,330.000885 201.048355,312.897980 
	C199.696930,308.604370 198.214706,308.019653 194.002914,309.742798 
	C176.679260,316.830170 160.010742,325.119080 144.485184,335.575500 
	C137.679565,340.159027 132.110336,346.176514 126.850449,352.458618 
	C123.007507,357.048401 120.439140,356.974335 114.291031,353.097198 
	C109.526604,350.092712 111.117332,346.492981 113.257957,343.275330 
	C118.296043,335.702393 125.091293,329.685425 132.407028,324.464478 
	C154.972916,308.360199 180.160034,297.496765 206.161957,288.331207 
	C209.830902,287.037903 211.562546,288.723846 212.443512,291.867798 
	C214.103256,297.790985 215.656372,303.745087 217.180679,309.705017 
	C220.180359,321.433655 225.975235,331.967682 231.179642,342.759674 
	C233.064255,346.667603 235.161392,346.973236 238.392929,343.996826 
	C246.965302,336.101257 255.705536,328.387238 264.414886,320.641388 
	C269.907257,315.756622 276.862976,315.195801 284.640259,319.145844 
z"/>
<path fill="#000000" opacity="1.000000" stroke="none" 
	d="
M288.999817,408.751556 
	C284.475006,411.915649 280.225433,414.815979 275.971313,417.709564 
	C274.032471,419.028320 272.245667,419.362518 270.078918,417.799713 
	C265.772491,414.693726 261.286285,411.833496 256.828735,408.942017 
	C254.663696,407.537598 253.856354,405.992401 254.282150,403.162170 
	C255.542465,394.785065 257.100403,386.506500 259.556213,378.387573 
	C260.472809,375.357208 261.912872,374.071960 265.298523,374.533997 
	C269.894623,375.161255 274.585876,375.361420 279.089539,373.673584 
	C282.079346,372.553131 283.477539,374.160492 284.165161,376.724030 
	C286.526062,385.525818 288.856781,394.336121 291.120361,403.163361 
	C291.654144,405.245056 291.050629,407.114288 288.999817,408.751556 
z"/>
<path fill="#000000" opacity="1.000000" stroke="none" 
	d="
M78.359299,212.602905 
	C79.245125,208.364944 81.676025,207.268219 85.415352,207.543610 
	C89.029388,207.809753 91.114014,209.558884 91.414917,212.981323 
	C91.882370,218.298126 94.712494,220.430923 99.843285,220.389679 
	C101.804520,220.373917 103.818245,220.830307 105.724274,221.368286 
	C108.904976,222.266098 110.223442,224.720474 110.115021,227.836807 
	C110.013321,230.759857 108.594345,233.016678 105.573135,233.651657 
	C102.982231,234.196182 100.324417,234.571640 97.681801,234.684372 
	C94.103165,234.837006 92.443848,236.139709 92.147499,240.053848 
	C91.659615,246.497711 89.755447,248.196335 85.032166,248.372726 
	C81.029900,248.522202 78.229790,246.877045 78.332436,242.815414 
	C78.508163,235.861801 75.192276,233.406540 68.713196,233.945587 
	C67.760307,234.024887 66.762268,233.566727 65.785652,233.354782 
	C61.635948,232.454269 59.370205,230.083160 59.647434,225.634171 
	C59.941475,220.915466 63.385853,220.806274 66.819450,220.639023 
	C67.651184,220.598511 68.484314,220.483398 69.313446,220.509384 
	C74.561241,220.673828 77.770149,218.460114 78.359299,212.602905 
z"/>
<path fill="#000000" opacity="1.000000" stroke="none" 
	d="
M467.398499,212.537811 
	C468.431824,208.297287 471.042236,207.383698 474.670959,207.650070 
	C478.348785,207.920044 480.253601,210.010040 480.497864,213.307129 
	C480.912384,218.901718 484.371094,220.152359 489.135468,220.618408 
	C496.843750,221.372437 499.296112,223.347565 499.051910,227.792358 
	C498.812286,232.153946 495.998474,234.106201 488.459045,234.353302 
	C483.762329,234.507233 481.078247,235.775894 480.933411,241.158890 
	C480.824005,245.225983 478.827942,248.312225 473.770874,248.361389 
	C468.124786,248.416275 466.907135,244.629608 466.945374,240.524841 
	C466.992340,235.478287 464.548676,234.332352 460.221710,234.180695 
	C457.615662,234.089340 454.917664,233.440857 452.481018,232.482971 
	C449.280457,231.224777 448.320953,228.386185 448.709229,225.092331 
	C449.107513,221.713501 451.529602,220.911880 454.400360,220.696762 
	C455.891479,220.585022 457.396484,220.219574 458.865936,220.336639 
	C464.301331,220.769638 466.670746,217.889969 467.398499,212.537811 
z"/>
<path fill="#000000" opacity="1.000000" stroke="none" 
	d="
M152.669922,526.987305 
	C151.021255,523.074646 153.307098,521.960754 156.057953,521.840820 
	C159.026962,521.711365 162.055893,522.016724 164.999451,522.496094 
	C168.215958,523.019897 170.039856,522.044250 170.882462,518.807861 
	C171.506134,516.412415 172.332230,513.998413 173.511459,511.834229 
	C175.658707,507.893524 179.047791,507.725922 181.801941,511.294647 
	C182.594055,512.321045 183.431808,513.605347 183.527008,514.827576 
	C184.037979,521.387756 187.759674,522.916199 193.548874,521.701172 
	C194.663284,521.467285 195.876022,521.651550 197.039642,521.713501 
	C199.163849,521.826599 201.088470,522.523132 201.840698,524.661194 
	C202.650543,526.962891 201.850235,529.513733 199.876465,530.356018 
	C192.218933,533.623718 189.794357,538.323792 194.029877,546.035645 
	C195.037460,547.870178 194.192535,550.425415 192.209808,551.827759 
	C190.345184,553.146545 188.407364,552.328735 186.524597,551.504456 
	C183.101990,550.005981 180.616028,547.267395 177.780121,544.583923 
	C174.705521,546.992493 171.912537,549.302429 168.982941,551.423645 
	C167.533600,552.473083 165.872131,553.671448 163.938278,552.564331 
	C162.122513,551.524902 161.972717,549.603882 161.856812,547.751221 
	C161.825775,547.255493 161.729874,546.676758 161.930328,546.266418 
	C165.416336,539.129395 162.600296,534.479614 156.201874,530.977295 
	C154.827744,530.225159 153.946976,528.571594 152.669922,526.987305 
z"/>
<path fill="#000000" opacity="1.000000" stroke="none" 
	d="
M350.257629,521.705322 
	C351.713348,521.693176 352.741119,521.536316 353.706970,521.714783 
	C359.308685,522.749390 362.428558,520.647644 363.459259,514.885437 
	C363.983887,511.952454 365.407684,508.758575 369.160522,509.013062 
	C372.781555,509.258636 374.408691,512.152771 375.300964,515.393860 
	C375.653992,516.676147 376.111420,517.962402 376.221344,519.272034 
	C376.443481,521.918945 377.734283,522.582886 380.247864,522.191772 
	C383.695892,521.655090 387.198181,521.268494 390.593231,522.673340 
	C394.489166,524.285583 395.610870,527.259033 392.247955,529.270691 
	C384.636871,533.823547 382.648163,539.711243 384.165924,548.119751 
	C384.923706,552.318054 381.577393,553.951538 377.565857,551.895813 
	C375.679749,550.929382 373.865387,549.553406 372.462921,547.969482 
	C369.647369,544.789795 367.298706,545.175354 364.653473,548.127136 
	C363.453308,549.466492 361.897461,550.544434 360.359192,551.512512 
	C356.168243,554.149963 351.932098,552.193176 353.319763,547.856567 
	C356.007629,539.456787 353.784149,534.464355 346.611298,529.721924 
	C342.394501,526.933899 344.268402,522.980530 350.257629,521.705322 
z"/>
</svg>