<?xml version="1.0"?>
<svg width="544" height="704" xmlns="http://www.w3.org/2000/svg" xmlns:svg="http://www.w3.org/2000/svg" enable-background="new 0 0 544 704" version="1.1" xml:space="preserve">
 <g class="layer">
  <title>Layer 1</title>
  <path d="m156.32,435.58c19.14,7.43 38,14.53 56.68,22.06c14.19,5.72 28.81,10.38 41.96,18.58c10.19,6.34 21.15,6.54 32,1.19c28.58,-14.11 58.43,-25.1 88.28,-36.09c29.06,-10.71 58.06,-21.59 87.07,-32.41c13.6,-5.08 12.16,-1.42 12.04,7.86c-0.13,9.33 0.16,18.67 -0.1,27.99c-0.11,4.02 1.2,5.98 5.13,7.1c11.45,3.26 21.65,8.57 28.72,18.7c22.67,32.47 3.57,77.45 -31.86,82.01c-0.47,0.06 -0.92,0.34 -1.86,0.71c0,8.48 -0.46,17.14 0.14,25.72c0.55,7.88 -3.08,12 -9.85,14.75c-26.08,10.58 -52.17,21.16 -78.15,32c-24.43,10.21 -48.71,20.77 -73.09,31.1c-3.69,1.56 -6.16,4.5 -9.03,6.99c-15.45,13.41 -37.61,15.77 -55.44,5.81c-1.6,-0.89 -3.48,-1.7 -4.52,-3.08c-6.45,-8.54 -16.32,-10.89 -25.47,-14.69c-28.93,-11.97 -57.69,-24.35 -86.69,-36.14c-17.28,-7.03 -34.68,-13.72 -51.61,-21.6c-7.44,-3.47 -11.31,-7.98 -10.49,-17.02c0.61,-6.69 0.58,-13.61 0.52,-20.43c-0.03,-2.79 -0.86,-4.22 -3.84,-4.64c-23.04,-3.31 -33.74,-23.29 -37.13,-41.23c-2.34,-12.45 -1.64,-24.69 4.42,-35.98c6.04,-11.25 16.06,-17.95 27.81,-22.37c8.51,-3.21 8.7,-3.58 8.68,-12.78c-0.03,-8.83 0.27,-17.65 -0.47,-26.48c-0.65,-7.66 0.82,-8.74 8.11,-6.75c15.64,4.27 30.17,11.5 45.37,16.95c10.82,3.88 21.54,8.01 32.67,12.17m-52.01,115.49c-4.2,1.09 -8.45,2.15 -12.8,1.97c-3.53,-0.14 -4.34,1.57 -4.07,4.56c0.51,5.49 0.91,10.98 -0.05,16.45c-0.76,4.32 0.95,6.42 5.15,8.05c28.26,10.98 56.45,22.1 84.17,34.4c17.66,7.84 35.47,15.33 53.23,22.94c5.05,2.16 6.12,1.57 5.66,-3.79c-0.67,-7.83 -0.14,-15.62 -0.07,-23.43c0.33,-41.83 0.38,-83.65 -0.67,-125.47c-0.07,-2.72 -0.73,-4.34 -3.55,-5.05c-8.1,-2.05 -15.66,-5.67 -23.33,-8.85c-37.87,-15.67 -76.56,-29.18 -114.71,-44.11c-1.63,-0.64 -3.29,-1.78 -5.28,-0.84c-0.19,0.43 -0.56,0.87 -0.56,1.32c-0.1,7.83 -0.05,15.66 -0.27,23.49c-0.1,3.7 1.41,5.04 5.02,4.99c5.65,-0.06 11.3,-0.24 16.92,0.98c12.25,2.65 20.33,14.02 18.39,26.37c-0.33,2.13 0.37,3.3 1.89,4.67c9.99,9.02 10.38,18.91 1.09,28.53c-2.19,2.26 -3.68,4.65 -4.05,7.77c-1.57,13.03 -8.84,21.18 -22.11,25.05m346.25,-120.87c-5.52,1.85 -11.12,3.51 -16.57,5.57c-39.71,15.02 -79.37,30.15 -119.1,45.1c-2.9,1.09 -3.85,2.56 -3.8,5.44c0.29,17.16 -0.46,34.31 -0.58,51.46c-0.21,32.48 0.35,64.97 0.61,97.45c0.01,1.28 -0.3,2.7 1.37,4.19c7.36,-3.06 14.97,-6.25 22.61,-9.39c39.44,-16.18 78.86,-32.37 118.33,-48.46c3.87,-1.58 5.99,-3.59 5.4,-8.15c-0.46,-3.61 -0.13,-7.32 -0.12,-10.98c0.04,-8.58 0.02,-8.36 -8.54,-9.29c-15.35,-1.65 -30.02,-6.29 -31.09,-28.82c-0.1,-2.25 -1.43,-3.6 -2.82,-5.06c-9.08,-9.56 -9.4,-19.38 -0.87,-29.3c1.61,-1.88 2.41,-3.75 2.4,-6.28c-0.11,-14.15 7.33,-22.67 21.51,-25.25c4.81,-0.87 9.62,-0.63 14.44,-0.73c2.74,-0.05 4.71,-1.08 4.76,-3.94c0.13,-8.25 0.04,-16.51 0.04,-24.76c-3.54,-0.62 -5.35,0.43 -7.98,1.2m-405.59,72.17c0.76,10.43 3.78,19.83 11.61,27.33c12.64,12.1 36.23,10.04 48.22,4.99c2.64,-1.11 5.15,-3.91 4.2,-6.65c-1.05,-3.02 -4.63,-1.6 -7.14,-1.36c-9.48,0.9 -18.97,0.73 -28.44,0.41c-4.2,-0.15 -6.7,-3.42 -6.58,-7.85c0.11,-4.25 2.37,-6.38 6.61,-6.44c2.99,-0.05 5.99,-0.14 8.99,-0.1c10.15,0.16 20.3,-0.01 30.39,-1.27c4.68,-0.59 7.67,-4.07 6.93,-8.09c-0.87,-4.74 -4.73,-3.73 -7.96,-3.59c-10.3,0.45 -20.6,1.03 -30.91,1.39c-3.65,0.13 -7.33,-0.07 -10.96,-0.44c-3.47,-0.35 -5.2,-2.49 -5.32,-6.07c-0.2,-6.02 2.53,-9.22 8.62,-8.72c10.33,0.85 20.62,0.62 30.89,-0.38c3.25,-0.31 6.98,-0.87 7.36,-5.26c0.31,-3.56 -3.2,-6.78 -7.67,-6.97c-12.97,-0.56 -25.95,-0.92 -38.92,-1.4c-5.01,-0.18 -9.05,1.75 -12.37,5.4c-6.26,6.88 -7.79,15.22 -7.55,25.07m451.72,-19.56c-4.47,-9.64 -12.66,-12.21 -22.35,-11.36c-8.66,0.76 -17.31,0.77 -25.97,0.97c-3.18,0.08 -6.32,0.48 -9.29,1.68c-2.55,1.03 -4,2.85 -3.76,5.8c0.22,2.73 2.15,3.59 4.32,4.12c1.61,0.4 3.27,0.58 4.92,0.78c9.79,1.23 19.62,0.84 29.45,0.83c5.05,-0.01 7.73,2.38 8,6.88c0.3,4.86 -2.12,7.35 -7.64,7.76c-1.82,0.13 -3.66,0.05 -5.5,0.08c-12,0.2 -23.98,-0.36 -35.96,-0.94c-2.17,-0.11 -4.61,-0.07 -5.47,2.48c-0.77,2.29 -0.39,4.64 1.16,6.62c1.35,1.72 3.27,2.07 5.33,2.27c12.77,1.22 25.55,2.1 38.4,1.94c4.63,-0.06 8.04,2.94 8.23,7.01c0.21,4.42 -3.04,5.94 -6.52,7.01c-1.25,0.38 -2.62,0.51 -3.94,0.51c-8.99,-0.02 -17.99,0.49 -26.97,-0.7c-2.19,-0.29 -5.51,-1.8 -6.54,1.48c-1.08,3.43 1.64,5.5 4.39,6.98c1.44,0.78 3.05,1.47 4.66,1.71c7.88,1.18 15.75,2.42 23.81,1.35c5.68,-0.75 11.14,-1.81 16.01,-5.07c15.03,-10.05 20.16,-31.86 11.23,-50.19m-226.15,14.47c-4.74,0.11 -9.23,-1.2 -13.71,-2.48c-2.82,-0.79 -4.53,-0.29 -4.58,3.1c-0.16,11.49 -1.24,22.95 -0.91,34.45c0.11,3.93 1.65,6.43 5.14,8.34c11.66,6.37 22.89,5.38 34.15,-1.04c2.8,-1.6 4.1,-3.35 4.08,-6.65c-0.07,-12.16 0.13,-24.33 0.15,-36.49c0.01,-1.56 0.53,-3.38 -1.44,-4.73c-7.05,2.48 -14.08,5.74 -22.88,5.5m0.27,125.66c-6.52,-0.45 -12.58,-2.56 -18.27,-5.72c-1.54,1.95 -1.18,3.67 -1.17,5.27c0.05,6.66 0.15,13.32 0.27,19.98c0.16,9.05 3.44,13.33 12.12,16.37c9.59,3.37 18.26,1.81 26.38,-4.21c3.23,-2.4 4.85,-5.17 4.75,-9.25c-0.19,-8 -0.08,-16 -0.15,-23.99c-0.01,-1.28 0.32,-2.72 -1.56,-3.91c-6.44,3.78 -13.6,6.15 -22.37,5.46m-7.8,-47.37c4.57,1.12 9.23,1.3 13.9,1.07c14.59,-0.7 18.36,-4.3 17.74,-16.84c-0.01,-0.17 -0.01,-0.34 -0.01,-0.5c0.01,-3.48 -1.4,-4.54 -4.7,-2.99c-10.37,4.87 -20.74,3.48 -31.09,-0.18c-1.82,-0.65 -3.5,-2.01 -5.75,-1.39c-1.68,2.22 -0.91,4.79 -0.91,7.2c-0.02,10.4 0.03,10.4 10.82,13.63m-9.46,14.04c-2.59,1.75 -1.15,4.6 -1.87,6.87c-1.28,4.08 0.41,6.49 4.37,8.03c8.27,3.22 16.81,4.31 25.48,2.87c11.6,-1.92 13.71,-4.59 13.15,-14.37c-0.17,-3.14 -1.15,-4.41 -4.28,-2.97c-12.11,5.54 -24.15,5.28 -36.85,-0.43z" fill="#ffffff" id="svg_1" opacity="1"/>
  <path d="m128.4,82.25c36.17,-10.63 71.44,-22.75 106.76,-34.71c10.25,-3.47 20.67,-6.36 30.9,-9.86c5.76,-1.97 11.49,-1.18 17.14,0.7c22.43,7.45 44.84,14.99 67.31,22.31c19.15,6.25 38.49,11.92 57.52,18.49c10.37,3.59 20.64,7.53 31.05,11.01c2.92,0.98 5.69,2.26 5.99,5.9c0.3,3.55 -2.04,5.42 -4.7,7.03c-0.85,0.52 -1.66,1.18 -2.58,1.51c-5.53,2.01 -7.44,5.65 -6.4,11.57c0.72,4.15 -0.83,8.21 -3.36,11.72c-1.36,1.9 -2.77,3.77 -3.94,5.78c-2.23,3.86 -2.45,7.35 1.59,10.49c5.23,4.08 8.99,9.22 10.74,15.82c1.93,7.25 0.66,13.46 -4.7,18.81c-1.62,1.62 -3.61,3.01 -4.36,5.92c6.22,0.19 5.6,4.81 6.16,9.08c1.58,12 -0.31,23.95 -0.14,35.92c0.1,7.31 0.52,14.62 0.72,21.94c0.08,2.68 0.18,5.48 -2.73,6.99c-3.21,1.66 -6.5,1.65 -9.46,-0.45c-2.02,-1.43 -3.73,-3.29 -5.55,-5c-2.75,-2.59 -5.51,-3.56 -8.68,-0.56c-1.93,1.82 -3.93,3.64 -6.14,5.08c-4.64,3.03 -9.05,0.88 -9.78,-4.58c-0.09,-0.66 -0.12,-1.33 -0.11,-2c0.44,-19.95 0.71,-39.91 1.48,-59.84c0.15,-3.98 -0.5,-6.99 -2.96,-10.05c-10.42,-12.93 -4.52,-28.12 3.67,-36.67c1.24,-1.29 2.85,-2.68 4.5,-3.03c7.21,-1.52 9.38,-5.79 7.61,-12.6c-0.12,-0.47 -0.03,-0.99 -0.03,-1.49c0.1,-11.43 -0.46,-11.99 -11.81,-9.02c-5.78,1.52 -11.35,3.86 -17.08,5.62c-2.85,0.87 -3.94,2.5 -3.98,5.43c-0.22,13.47 -0.7,26.93 -0.85,40.4c-0.15,13.65 0.44,27.33 -1.78,40.87c-3.5,21.34 -13.24,39.69 -27.9,55.35c-8.77,9.37 -18.6,17.53 -29.84,24.05c-26.52,15.37 -52.89,15.55 -79.73,0.77c-30.24,-16.66 -48.66,-42.24 -57.6,-75.06c-3.22,-11.81 -3.36,-24.04 -3.49,-36.19c-0.18,-16.5 -0.35,-32.99 -0.16,-49.48c0.05,-4.22 -1.56,-5.7 -5.3,-6.83c-18.47,-5.6 -36.85,-11.47 -55.25,-17.29c-2.06,-0.65 -4.03,-1.58 -6.02,-2.43c-2.97,-1.28 -5.08,-3.27 -5,-6.76c0.07,-3.49 2.34,-5.48 5.29,-6.57c7.5,-2.75 15.07,-5.31 22.98,-8.09m108.17,192.66c11.48,7.36 24.07,12.12 37.64,11.46c14.75,-0.72 28.31,-6.43 39.94,-15.54c22.49,-17.59 37.47,-39.95 41.05,-68.88c1.08,-8.68 0.83,-17.43 0.18,-26.42c-3.91,0.2 -6.79,1.54 -9.62,2.8c-17.36,7.73 -35.4,13.67 -53.17,20.33c-13.57,5.08 -26.73,5.3 -40.39,0.42c-19.45,-6.95 -38.88,-13.88 -57.76,-22.28c-1.75,-0.78 -3.46,-2.11 -5.62,-1.48c-4.78,34.64 11.03,76.25 47.75,99.59m83.43,-206.3c-14.16,-4.91 -28.34,-9.73 -42.45,-14.77c-3.86,-1.38 -7.34,-1.08 -11.13,0.24c-40.42,14.07 -80.97,27.75 -121.73,40.79c-1.59,0.51 -3.3,0.92 -4.74,2.51c1.35,0.53 2.27,0.92 3.2,1.25c35.02,12.35 70.96,22 105.65,35.28c15.84,6.07 30.4,5.96 46.33,0.02c35.55,-13.24 71.99,-23.95 108.22,-35.21c1.06,-0.33 2.36,-0.4 2.72,-2.75c-28.62,-8.26 -56.91,-17.88 -86.07,-27.36m30.61,90.4c2.18,-1.24 5.83,-0.88 5.96,-4.41c0.26,-6.64 0.42,-13.31 -0.32,-19.95c-0.35,-3.1 -2.1,-3.91 -4.89,-3.02c-1.75,0.56 -3.48,1.14 -5.22,1.72c-21.89,7.43 -43.8,14.82 -65.67,22.32c-4.92,1.68 -9.58,1.66 -14.62,0.17c-21.4,-6.31 -42.33,-14.01 -63.54,-20.84c-4.46,-1.43 -8.7,-3.81 -14.28,-4.35c0,7.82 0.24,14.96 -0.1,22.07c-0.17,3.42 0.83,5.01 4.03,6.21c19.46,7.34 38.97,14.59 58.22,22.47c15.75,6.44 30.91,5.84 46.43,-0.72c17.63,-7.46 35.52,-14.27 54,-21.67m51.63,10.8c0.46,2.57 2.46,3.78 4.42,5.06c3.3,2.15 6.39,2.06 9.65,-0.28c3.76,-2.69 5.29,-6.33 4.93,-10.71c-0.33,-3.98 -3.12,-5.84 -6.7,-7.09c-6.59,-2.28 -13.96,2.65 -12.3,13.02m14.57,36.76c-0.3,-3.22 0.36,-6.54 -0.65,-9.77c-3.34,0.3 -5.17,2.17 -5.36,4.77c-0.65,9.11 -1.04,18.24 -1.31,27.37c-0.1,3.23 2.61,4.23 5.15,4.27c2.62,0.03 2.29,-2.51 2.3,-4.2c0.06,-7.16 -0.06,-14.31 -0.13,-22.44z" fill="#ffffff" id="svg_2" opacity="1"/>
  <path d="m253.21,445.7c-13.7,-12.36 -29.78,-20.11 -46.12,-27.25c-29.02,-12.67 -58.8,-23.34 -88.96,-32.98c-2.85,-0.91 -5.61,-2.12 -8.34,-3.35c-2.24,-1.01 -3.69,-2.72 -4.07,-5.29c-1.01,-6.88 2.24,-9.71 9.58,-7.6c11.35,3.27 22.68,6.69 33.86,10.49c28.08,9.53 55.93,19.63 82.33,33.38c14.63,7.62 28.02,16.72 38.66,29.5c0.85,1.01 1.53,2.16 1.8,2.54c2.54,0.12 3.27,-0.88 3.94,-1.79c12.98,-17.76 31.56,-27.84 50.91,-36.69c32.91,-15.05 66.96,-27.07 101.61,-37.44c0.96,-0.28 1.92,-0.55 2.89,-0.8c3.63,-0.96 7.02,-1.34 8.5,3.31c1.61,5.06 0.3,9.31 -4.05,10.88c-6.88,2.48 -13.96,4.41 -20.9,6.74c-30.64,10.28 -61.21,20.76 -90.27,35.08c-12.29,6.06 -23.27,14.08 -33.05,23.97c5.73,-2.45 11.53,-4.77 17.19,-7.38c41.66,-19.17 84.81,-34.5 128.07,-49.55c5.17,-1.8 10.58,-2.9 15.88,-4.33c2.86,-0.76 4.27,0.42 5.01,3.24c1.99,7.72 0.63,10.47 -6.97,12.94c-43.27,14.03 -85.44,31.05 -127.93,47.17c-9.17,3.48 -18.17,7.6 -26.79,12.25c-13.48,7.27 -26.98,7.52 -40.83,1.86c-21.74,-8.88 -43.28,-18.26 -65.16,-26.75c-32.13,-12.45 -64.27,-24.92 -97,-35.77c-5.76,-1.9 -7.85,-7.58 -4.73,-12.83c1.43,-2.4 3.68,-2.39 6.15,-2.04c7.32,1.04 14.16,3.69 21.05,6.16c34.81,12.45 69.46,25.37 103.51,39.79c11.19,4.73 22.07,10.2 33.09,15.32c1.46,0.67 2.93,1.31 4.71,2.1c-0.45,-2.44 -2.27,-3.26 -3.57,-4.88z" fill="#ffffff" id="svg_3" opacity="1"/>
  <path d="m284.64,319.15c7.76,7.8 15.26,15.35 22.69,22.98c4.62,4.75 4.99,4.78 7.87,-0.91c7.95,-15.65 13.81,-32.11 18.26,-49.04c1.2,-4.54 2.7,-5.87 7.14,-3.97c26.95,11.54 54.22,22.45 77.17,41.42c5.27,4.36 10.17,9.15 13.96,14.9c4.09,6.2 3.27,8.06 -3.81,10.11c-3.95,1.15 -7.54,1.37 -10.39,-2.24c-11.18,-14.16 -26.84,-22.12 -42.24,-30.42c-7.63,-4.12 -15.4,-7.92 -23.36,-11.34c-3.51,-1.51 -5.19,-1.09 -6.63,2.8c-6.07,16.42 -13.48,32.24 -22.91,47.05c-5.62,8.83 -9.58,9.44 -17.42,2.44c-3.35,-3 -6.6,-6.11 -9.78,-9.3c-2.44,-2.45 -4.14,-2.57 -6.19,0.65c-5.27,8.28 -15.26,11.73 -24.82,9.08c-3.89,-1.08 -6.33,-3.75 -7.83,-7.17c-2,-4.56 -4.51,-4.21 -7.53,-1.29c-2.63,2.54 -5.1,5.25 -7.7,7.81c-7.38,7.26 -11.54,6.82 -16.98,-1.76c-9.58,-15.11 -17.71,-30.95 -23.09,-48.05c-1.35,-4.3 -2.84,-4.88 -7.05,-3.16c-17.32,7.09 -33.99,15.38 -49.51,25.84c-6.81,4.58 -12.38,10.6 -17.64,16.88c-3.84,4.59 -6.41,4.51 -12.56,0.64c-4.76,-3.01 -3.17,-6.61 -1.03,-9.82c5.04,-7.58 11.83,-13.59 19.15,-18.82c22.56,-16.1 47.75,-26.96 73.75,-36.13c3.67,-1.29 5.4,0.39 6.28,3.54c1.66,5.92 3.22,11.88 4.74,17.84c3,11.72 8.8,22.26 14,33.05c1.88,3.91 3.98,4.21 7.21,1.24c8.58,-7.9 17.32,-15.61 26.02,-23.36c5.5,-4.88 12.45,-5.44 20.23,-1.49z" fill="#ffffff" id="svg_4" opacity="1"/>
  <path d="m289,408.75c-4.52,3.17 -8.77,6.07 -13.03,8.96c-1.94,1.32 -3.72,1.65 -5.89,0.09c-4.31,-3.11 -8.79,-5.97 -13.25,-8.86c-2.17,-1.4 -2.97,-2.95 -2.55,-5.78c1.26,-8.37 2.82,-16.65 5.28,-24.77c0.91,-3.03 2.35,-4.32 5.74,-3.86c4.59,0.63 9.29,0.83 13.79,-0.86c2.99,-1.12 4.39,0.49 5.08,3.05c2.36,8.81 4.69,17.62 6.95,26.44c0.53,2.09 -0.07,3.95 -2.12,5.59z" fill="#ffffff" id="svg_5" opacity="1"/>
  <path d="m78.36,212.6c0.89,-4.24 3.32,-5.33 7.06,-5.06c3.61,0.27 5.69,2.02 5.99,5.44c0.47,5.32 3.3,7.45 8.43,7.41c1.96,-0.02 3.98,0.44 5.88,0.98c3.18,0.9 4.5,3.35 4.4,6.47c-0.11,2.92 -1.53,5.18 -4.55,5.81c-2.59,0.55 -5.25,0.92 -7.89,1.03c-3.58,0.16 -5.24,1.46 -5.53,5.37c-0.49,6.45 -2.39,8.15 -7.12,8.32c-4,0.15 -6.8,-1.49 -6.7,-5.55c0.18,-6.96 -3.14,-9.41 -9.62,-8.87c-0.95,0.07 -1.95,-0.38 -2.92,-0.6c-4.15,-0.9 -6.42,-3.27 -6.14,-7.72c0.29,-4.71 3.74,-4.82 7.17,-4.99c0.83,-0.04 1.66,-0.16 2.49,-0.13c5.25,0.16 8.46,-2.05 9.05,-7.91z" fill="#ffffff" id="svg_6" opacity="1" transform="matrix(1 0 0 1 0 0)"/>
  <path d="m467.4,212.54c1.03,-4.24 3.64,-5.16 7.27,-4.89c3.68,0.27 5.58,2.36 5.83,5.66c0.41,5.59 3.87,6.84 8.64,7.31c7.7,0.75 10.16,2.73 9.91,7.17c-0.24,4.36 -3.05,6.32 -10.59,6.56c-4.7,0.16 -7.38,1.43 -7.53,6.81c-0.11,4.07 -2.1,7.15 -7.16,7.2c-5.65,0.06 -6.86,-3.73 -6.82,-7.84c0.04,-5.04 -2.4,-6.19 -6.73,-6.34c-2.6,-0.09 -5.3,-0.74 -7.74,-1.7c-3.2,-1.26 -4.16,-4.09 -3.77,-7.39c0.4,-3.38 2.82,-4.18 5.69,-4.39c1.49,-0.11 3,-0.48 4.47,-0.36c5.43,0.43 7.8,-2.45 8.53,-7.8z" fill="#ffffff" id="svg_7" opacity="1"/>
  <path d="m152.67,526.99c-1.65,-3.92 0.64,-5.03 3.39,-5.15c2.97,-0.13 6,0.18 8.94,0.66c3.22,0.52 5.04,-0.46 5.88,-3.69c0.63,-2.4 1.45,-4.81 2.63,-6.98c2.15,-3.94 5.54,-4.1 8.29,-0.54c0.79,1.03 1.63,2.32 1.73,3.54c0.51,6.56 4.23,8.09 10.02,6.87c1.11,-0.23 2.33,-0.05 3.49,0.01c2.12,0.12 4.05,0.81 4.8,2.95c0.81,2.3 0.01,4.85 -1.96,5.7c-7.66,3.26 -10.09,7.96 -5.85,15.68c1.01,1.83 0.16,4.39 -1.82,5.79c-1.86,1.32 -3.8,0.5 -5.69,-0.33c-3.42,-1.49 -5.9,-4.23 -8.74,-6.92c-3.07,2.41 -5.87,4.72 -8.8,6.84c-1.45,1.05 -3.11,2.25 -5.04,1.14c-1.82,-1.04 -1.97,-2.96 -2.08,-4.81c-0.03,-0.49 -0.13,-1.07 0.07,-1.48c3.49,-7.14 0.67,-11.79 -5.73,-15.29c-1.37,-0.75 -2.25,-2.41 -3.53,-3.99z" fill="#ffffff" id="svg_8" opacity="1"/>
  <path d="m350.26,521.71c1.45,-0.02 2.48,-0.17 3.45,0c5.6,1.04 8.72,-1.06 9.75,-6.82c0.52,-2.94 1.95,-6.13 5.7,-5.88c3.62,0.25 5.25,3.14 6.14,6.38c0.35,1.29 0.81,2.57 0.92,3.88c0.22,2.65 1.51,3.31 4.03,2.92c3.45,-0.53 6.95,-0.92 10.34,0.48c3.9,1.62 5.02,4.59 1.66,6.6c-7.61,4.55 -9.6,10.44 -8.08,18.85c0.75,4.2 -2.59,5.83 -6.6,3.78c-1.89,-0.97 -3.7,-2.35 -5.11,-3.93c-2.81,-3.18 -5.16,-2.79 -7.81,0.16c-1.2,1.34 -2.75,2.41 -4.29,3.38c-4.19,2.64 -8.43,0.68 -7.04,-3.65c2.69,-8.4 0.46,-13.4 -6.71,-18.14c-4.22,-2.79 -2.34,-6.74 3.65,-8.01z" fill="#ffffff" id="svg_9" opacity="1"/>
 </g>
</svg>